REM DIRINDEX 1\2,1\3
REM DIRNAME folder01,folder02,folder03
TITLE ""
FILE "0201-0240.mp3" MP3
  TRACK 01 AUDIO
    TITLE "0:"
    INDEX 01 00:00:00
  TRACK 02 AUDIO
    TITLE "2:cjc039_0201"
    INDEX 01 00:00:25
  TRACK 03 AUDIO
    TITLE "0:"
    INDEX 01 00:01:50
  TRACK 04 AUDIO
    TITLE "2:cjc039_0202"
    INDEX 01 00:02:28
  TRACK 05 AUDIO
    TITLE "0:"
    INDEX 01 00:03:68
  TRACK 06 AUDIO
    TITLE "2:cjc039_0203"
    INDEX 01 00:04:46
  TRACK 07 AUDIO
    TITLE "0:"
    INDEX 01 00:05:61
  TRACK 08 AUDIO
    TITLE "2:cjc039_0204"
    INDEX 01 00:06:41
  TRACK 09 AUDIO
    TITLE "0:"
    INDEX 01 00:07:51
  TRACK 10 AUDIO
    TITLE "2:cjc039_0205"
    INDEX 01 00:08:26
  TRACK 11 AUDIO
    TITLE "0:"
    INDEX 01 00:09:59
  TRACK 12 AUDIO
    TITLE "2:cjc039_0206"
    INDEX 01 00:10:35
  TRACK 13 AUDIO
    TITLE "0:"
    INDEX 01 00:11:54
  TRACK 14 AUDIO
    TITLE "2:cjc039_0207"
    INDEX 01 00:12:30
  TRACK 15 AUDIO
    TITLE "0:"
    INDEX 01 00:13:71
  TRACK 16 AUDIO
    TITLE "2:cjc039_0208"
    INDEX 01 00:14:49
  TRACK 17 AUDIO
    TITLE "0:"
    INDEX 01 00:16:02
  TRACK 18 AUDIO
    TITLE "2:cjc039_0209"
    INDEX 01 00:16:55
  TRACK 19 AUDIO
    TITLE "0:"
    INDEX 01 00:18:27
  TRACK 20 AUDIO
    TITLE "2:cjc039_0210"
    INDEX 01 00:19:01
  TRACK 21 AUDIO
    TITLE "0:"
    INDEX 01 00:20:26
  TRACK 22 AUDIO
    TITLE "2:cjc039_0211"
    INDEX 01 00:21:04
  TRACK 23 AUDIO
    TITLE "0:"
    INDEX 01 00:22:32
  TRACK 24 AUDIO
    TITLE "2:cjc039_0212"
    INDEX 01 00:23:06
  TRACK 25 AUDIO
    TITLE "0:"
    INDEX 01 00:24:18
  TRACK 26 AUDIO
    TITLE "2:cjc039_0213"
    INDEX 01 00:24:65
  TRACK 27 AUDIO
    TITLE "0:"
    INDEX 01 00:26:09
  TRACK 28 AUDIO
    TITLE "2:cjc039_0214"
    INDEX 01 00:26:62
  TRACK 29 AUDIO
    TITLE "0:"
    INDEX 01 00:28:23
  TRACK 30 AUDIO
    TITLE "2:cjc039_0215"
    INDEX 01 00:29:01
  TRACK 31 AUDIO
    TITLE "0:"
    INDEX 01 00:30:44
  TRACK 32 AUDIO
    TITLE "2:cjc039_0216"
    INDEX 01 00:31:22
  TRACK 33 AUDIO
    TITLE "0:"
    INDEX 01 00:32:39
  TRACK 34 AUDIO
    TITLE "2:cjc039_0217"
    INDEX 01 00:33:17
  TRACK 35 AUDIO
    TITLE "0:"
    INDEX 01 00:34:42
  TRACK 36 AUDIO
    TITLE "2:cjc039_0218"
    INDEX 01 00:35:21
  TRACK 37 AUDIO
    TITLE "0:"
    INDEX 01 00:36:40
  TRACK 38 AUDIO
    TITLE "2:cjc039_0219"
    INDEX 01 00:37:18
  TRACK 39 AUDIO
    TITLE "0:"
    INDEX 01 00:38:51
  TRACK 40 AUDIO
    TITLE "2:cjc039_0220"
    INDEX 01 00:39:23
  TRACK 41 AUDIO
    TITLE "0:"
    INDEX 01 00:40:38
  TRACK 42 AUDIO
    TITLE "2:cjc039_0221"
    INDEX 01 00:41:16
  TRACK 43 AUDIO
    TITLE "0:"
    INDEX 01 00:42:63
  TRACK 44 AUDIO
    TITLE "2:cjc039_0222"
    INDEX 01 00:43:42
  TRACK 45 AUDIO
    TITLE "0:"
    INDEX 01 00:44:65
  TRACK 46 AUDIO
    TITLE "2:cjc039_0223"
    INDEX 01 00:45:33
  TRACK 47 AUDIO
    TITLE "0:"
    INDEX 01 00:46:56
  TRACK 48 AUDIO
    TITLE "2:cjc039_0224"
    INDEX 01 00:47:27
  TRACK 49 AUDIO
    TITLE "0:"
    INDEX 01 00:48:55
  TRACK 50 AUDIO
    TITLE "2:cjc039_0225"
    INDEX 01 00:49:35
  TRACK 51 AUDIO
    TITLE "0:"
    INDEX 01 00:50:54
  TRACK 52 AUDIO
    TITLE "2:cjc039_0226"
    INDEX 01 00:51:32
  TRACK 53 AUDIO
    TITLE "0:"
    INDEX 01 00:52:65
  TRACK 54 AUDIO
    TITLE "2:cjc039_0227"
    INDEX 01 00:53:41
  TRACK 55 AUDIO
    TITLE "0:"
    INDEX 01 00:54:72
  TRACK 56 AUDIO
    TITLE "2:cjc039_0228"
    INDEX 01 00:55:53
  TRACK 57 AUDIO
    TITLE "0:"
    INDEX 01 00:57:05
  TRACK 58 AUDIO
    TITLE "2:cjc039_0229"
    INDEX 01 00:57:54
  TRACK 59 AUDIO
    TITLE "0:"
    INDEX 01 00:59:02
  TRACK 60 AUDIO
    TITLE "2:cjc039_0230"
    INDEX 01 00:59:57
  TRACK 61 AUDIO
    TITLE "0:"
    INDEX 01 01:00:74
  TRACK 62 AUDIO
    TITLE "2:cjc039_0231"
    INDEX 01 01:01:54
  TRACK 63 AUDIO
    TITLE "0:"
    INDEX 01 01:03:12
  TRACK 64 AUDIO
    TITLE "2:cjc039_0232"
    INDEX 01 01:03:73
  TRACK 65 AUDIO
    TITLE "0:"
    INDEX 01 01:05:22
  TRACK 66 AUDIO
    TITLE "2:cjc039_0233"
    INDEX 01 01:06:00
  TRACK 67 AUDIO
    TITLE "0:"
    INDEX 01 01:07:29
  TRACK 68 AUDIO
    TITLE "2:cjc039_0234"
    INDEX 01 01:08:09
  TRACK 69 AUDIO
    TITLE "0:"
    INDEX 01 01:09:42
  TRACK 70 AUDIO
    TITLE "2:cjc039_0235"
    INDEX 01 01:10:22
  TRACK 71 AUDIO
    TITLE "0:"
    INDEX 01 01:11:52
  TRACK 72 AUDIO
    TITLE "2:cjc039_0236"
    INDEX 01 01:12:34
  TRACK 73 AUDIO
    TITLE "0:"
    INDEX 01 01:14:12
  TRACK 74 AUDIO
    TITLE "2:cjc039_0237"
    INDEX 01 01:14:68
  TRACK 75 AUDIO
    TITLE "0:"
    INDEX 01 01:16:48
  TRACK 76 AUDIO
    TITLE "2:cjc039_0238"
    INDEX 01 01:17:28
  TRACK 77 AUDIO
    TITLE "0:"
    INDEX 01 01:18:47
  TRACK 78 AUDIO
    TITLE "2:cjc039_0239"
    INDEX 01 01:19:27
  TRACK 79 AUDIO
    TITLE "0:"
    INDEX 01 01:20:55
  TRACK 80 AUDIO
    TITLE "2:cjc039_0240"
    INDEX 01 01:21:37
  TRACK 81 AUDIO
    TITLE "0:"
    INDEX 01 01:23:09
